<?xml version="1.0" standalone="no"?>
<!DOCTYPE svg PUBLIC "-//W3C//DTD SVG 20010904//EN"
 "http://www.w3.org/TR/2001/REC-SVG-20010904/DTD/svg10.dtd">
<svg version="1.0" xmlns="http://www.w3.org/2000/svg"
 width="200.000000pt" height="200.000000pt" viewBox="0 0 200.000000 200.000000"
 preserveAspectRatio="xMidYMid meet">
<metadata>
Created by potrace 1.14, written by Peter Selinger 2001-2017
</metadata>
<g transform="translate(0.000000,200.000000) scale(0.100000,-0.100000)"
fill="#000000" stroke="none">
<path d="M1082 1822 c-34 -11 -90 -59 -108 -94 -34 -66 -13 -174 43 -218 25
-19 30 -53 24 -151 -1 -13 -21 -16 -146 -17 -143 -1 -145 -1 -146 21 -1 12 -1
28 0 35 1 9 -38 12 -168 12 l-170 0 2 -32 2 -33 -105 -3 -106 -3 0 -154 -1
-154 106 -3 105 -3 1 -60 0 -60 165 0 165 0 2 35 c1 19 2 48 2 63 l1 28 252
-1 c245 -1 253 -2 299 -25 67 -35 108 -98 111 -172 1 -32 3 -33 42 -34 118 -2
258 1 265 6 14 8 3 102 -19 175 -23 76 -81 170 -139 223 -59 54 -175 113 -253
128 -75 14 -70 6 -70 107 0 44 4 56 22 69 33 24 68 106 63 150 -10 94 -76 162
-164 168 -30 2 -64 1 -77 -3z m134 -70 c36 -26 57 -78 51 -126 -4 -31 -15 -50
-44 -76 -36 -33 -38 -38 -40 -100 0 -36 -2 -75 -2 -86 -1 -18 -7 -22 -43 -22
l-43 -1 1 89 c1 84 0 90 -23 105 -33 22 -63 74 -63 108 0 104 123 169 206 109z
m-523 -587 c-1 -104 -2 -194 -2 -200 -1 -10 -207 -12 -217 -3 -4 4 -6 219 -4
369 l0 26 112 -1 112 -1 -1 -190z m-282 113 c1 -16 1 -181 0 -190 -1 -4 -35
-6 -76 -6 -74 1 -75 1 -76 27 -1 43 -1 155 0 169 1 17 151 17 152 0z m909 -1
c105 -27 236 -127 288 -218 29 -51 62 -150 62 -185 l0 -25 -101 3 -102 3 -14
49 c-19 66 -100 147 -164 165 -30 8 -128 13 -294 14 l-248 2 0 98 c1 53 2 100
2 103 1 7 539 -1 571 -9z"/>
<path d="M552 1255 c-1 -19 3 -25 18 -25 11 0 23 0 27 0 4 0 8 11 10 25 3 22
0 25 -24 25 -23 0 -29 -5 -31 -25z"/>
<path d="M565 1172 c-6 -4 -11 -16 -10 -27 0 -27 48 -28 53 -1 5 26 -22 44
-43 28z"/>
<path d="M554 1055 c-11 -27 3 -43 30 -38 19 4 26 11 26 29 0 19 -5 24 -25 24
-14 0 -28 -7 -31 -15z"/>
<path d="M690 1773 c-71 -23 -105 -72 -97 -141 4 -37 12 -53 41 -79 20 -18 45
-34 56 -34 64 -4 76 -1 107 25 18 15 42 25 59 24 67 -1 74 1 74 27 0 24 -2 25
-65 25 -55 0 -68 -3 -89 -25 -51 -51 -137 -14 -132 56 5 67 88 97 132 46 21
-24 29 -27 88 -26 65 1 66 2 66 29 0 26 -2 27 -56 28 -38 0 -59 5 -67 16 -21
27 -79 42 -117 29z"/>
<path d="M1532 1769 c-13 -5 -34 -17 -47 -27 -16 -13 -38 -17 -79 -16 -55 1
-56 1 -56 -27 l0 -28 73 1 c60 1 76 5 97 24 30 27 46 31 82 21 36 -9 58 -52
47 -90 -16 -59 -81 -76 -125 -32 -22 22 -33 25 -99 25 -73 0 -75 -1 -75 -25 0
-26 8 -29 78 -25 19 1 41 -5 51 -14 91 -83 227 -26 226 94 -1 38 -6 55 -25 76
-44 46 -100 63 -148 43z"/>
<path d="M1558 740 c-46 -53 -132 -186 -164 -254 -32 -68 -36 -83 -32 -136 5
-72 40 -123 109 -158 36 -18 56 -22 114 -19 134 7 208 76 209 194 0 41 -9 70
-41 135 -38 75 -147 237 -170 251 -5 3 -17 -2 -25 -13z m79 -148 c100 -148
124 -233 83 -299 -39 -65 -146 -89 -227 -51 -72 34 -96 98 -68 182 23 68 135
246 154 246 3 0 29 -35 58 -78z"/>
</g>
</svg>
